Coordinates
version=1
nRows=13
nColumns=40
inDegrees=yes

Units are S.I. units (second, meters, Newtons, ...)
Angles are in degrees.

endheader
time	pelvis_tilt	pelvis_list	pelvis_rotation	pelvis_tx	pelvis_ty	pelvis_tz	hip_flexion_r	hip_adduction_r	hip_rotation_r	knee_angle_r	knee_angle_r_beta	ankle_angle_r	subtalar_angle_r	mtp_angle_r	hip_flexion_l	hip_adduction_l	hip_rotation_l	knee_angle_l	knee_angle_l_beta	ankle_angle_l	subtalar_angle_l	mtp_angle_l	lumbar_extension	lumbar_bending	lumbar_rotation	arm_flex_r	arm_add_r	arm_rot_r	elbow_flex_r	pro_sup_r	wrist_flex_r	wrist_dev_r	arm_flex_l	arm_add_l	arm_rot_l	elbow_flex_l	pro_sup_l	wrist_flex_l	wrist_dev_l
     21.09250000	     -3.72911464	     -5.07986179	      0.62777683	      0.94453520	      0.92549484	      0.41769261	     17.53247116	      2.32581031	    -12.59931627	     19.49220046	     19.49220046	      7.69789945	     -0.28609259	     -4.39438587	     17.16090009	    -13.34783480	     -4.07988970	     47.69636222	     47.69636222	     12.48368034	    -17.48459423	      3.27631542	    -10.84035010	      7.25761792	      3.60730600	      8.98858824	    -15.00180727	     -3.58544976	     40.78708120	     45.37915364	      0.00000000	      0.00000000	     12.63795460	    -11.84361323	     -6.76327052	     40.61058428	     45.81890882	      0.00000000	      0.00000000
     21.10571429	     -3.64556656	     -5.06449820	      0.98128378	      0.94430231	      0.92601363	      0.41987858	     16.96383232	      2.39773679	    -13.00668247	     19.28683295	     19.28683295	      7.99727686	      0.00558596	     -4.42442197	     18.72335579	    -13.50545454	     -3.06372123	     50.36252535	     50.36252535	     11.69324821	    -17.73173123	      4.27915714	    -10.89432888	      7.23735195	      3.38192193	     10.46306651	    -15.04217484	     -3.44168845	     41.98883891	     45.34503867	      0.00000000	      0.00000000	     11.67659145	    -11.29516902	     -6.76494738	     39.14803121	     45.81946614	      0.00000000	      0.00000000
     21.11892857	     -3.63421820	     -4.98694690	      1.28013948	      0.94392493	      0.92656337	      0.42194869	     16.44410314	      2.40423206	    -13.42777931	     19.01059392	     19.01059392	      8.27774538	      0.46125587	     -4.42888565	     20.27416632	    -13.54793064	     -2.21267335	     52.65264592	     52.65264592	     11.37880833	    -17.85415088	      6.19329305	    -10.88452286	      7.11835368	      3.37011722	     11.83838678	    -15.23815347	     -3.06862938	     43.30804812	     45.29848272	      0.00000000	      0.00000000	     11.05450296	    -10.58068015	     -6.95624196	     37.20184676	     45.84908920	      0.00000000	      0.00000000
     21.13214286	     -3.65140066	     -4.99589141	      1.56961303	      0.94349643	      0.92703987	      0.42398531	     15.95829242	      2.53848588	    -13.71806163	     18.71074312	     18.71074312	      8.49209529	      0.65241301	     -4.41545283	     21.72607786	    -13.70744006	     -1.52920060	     54.41078044	     54.41078044	     10.76199264	    -18.00687596	      6.62783090	    -10.84203132	      7.06582224	      3.67031953	     13.11269196	    -15.49963723	     -3.08106019	     44.05476027	     45.28227957	      0.00000000	      0.00000000	     10.11204229	     -9.92065273	     -6.93744757	     36.39211871	     45.83558895	      0.00000000	      0.00000000
     21.14535714	     -3.66351524	     -4.96955691	      1.85511884	      0.94303098	      0.92760741	      0.42584804	     15.44828258	      2.61231795	    -14.08890741	     18.38523101	     18.38523101	      8.68409916	      1.02834032	     -4.38388955	     23.04836835	    -13.80869183	     -1.00613609	     55.66413799	     55.66413799	     10.48340282	    -18.14702467	      7.40378797	    -10.80367781	      6.99006394	      3.62002720	     14.57491587	    -15.60039838	     -3.03870028	     45.17564910	     45.25105606	      0.00000000	      0.00000000	      9.06488485	     -9.43726554	     -6.99848252	     35.17097262	     45.83104058	      0.00000000	      0.00000000
     21.15857143	     -3.64331166	     -4.87209000	      2.12643597	      0.94254377	      0.92832354	      0.42756809	     14.89805422	      2.59414519	    -14.49824030	     18.06358416	     18.06358416	      8.90951701	      1.59595575	     -4.30075574	     24.17854845	    -13.84225647	     -0.68339461	     56.35666512	     56.35666512	     10.57152160	    -18.22566337	      8.67126759	    -10.81383518	      6.83203198	      3.53711771	     15.98028608	    -15.70922555	     -2.85472957	     46.57376339	     45.20512546	      0.00000000	      0.00000000	      8.08957328	     -8.97922788	     -7.23514574	     33.67570597	     45.85285318	      0.00000000	      0.00000000
     21.17178571	     -3.61200935	     -4.71069026	      2.27606992	      0.94202530	      0.92904017	      0.42918437	     14.43324854	      2.53309551	    -14.61153527	     17.90585483	     17.90585483	      9.10385460	      1.76731243	     -4.27585521	     25.08503934	    -13.92270458	     -0.76034881	     56.44746725	     56.44746725	     10.53072806	    -18.33271080	      9.01746802	    -10.83191115	      6.60559875	      4.07312942	     17.29490069	    -16.17522716	     -2.92379583	     47.27477225	     45.19248852	      0.00000000	      0.00000000	      7.11416921	     -8.40540648	     -7.27115285	     33.05085339	     45.84371244	      0.00000000	      0.00000000
     21.18500000	     -3.59720554	     -4.61932674	      2.55218678	      0.94142304	      0.92976713	      0.43046306	     13.94014637	      2.42636931	    -15.31506313	     17.73095023	     17.73095023	      9.63256450	      2.83946682	     -3.48769828	     26.05946787	    -13.94596286	     -0.66092074	     56.25001544	     56.25001544	     11.67984694	    -18.28999538	     12.33071317	    -10.87167214	      6.47333224	      4.25080119	     18.00004084	    -16.82904542	     -1.89113779	     50.05404708	     45.08276648	      0.00000000	      0.00000000	      6.76409454	     -7.68260928	     -9.12018144	     30.54503801	     46.12318041	      0.00000000	      0.00000000
     21.19821429	     -3.60008356	     -4.54325596	      2.74612273	      0.94076016	      0.93035743	      0.43173472	     13.51797709	      2.44206049	    -15.45696048	     17.55772033	     17.55772033	      9.81191449	      2.93689806	     -3.46657291	     26.78548907	    -14.15605183	     -0.97174156	     55.30842406	     55.30842406	     11.72036080	    -18.39204144	     12.48334933	    -10.84836451	      6.37979259	      4.63971238	     19.38068913	    -17.22355216	     -2.08916937	     50.70000909	     45.07827366	      0.00000000	      0.00000000	      5.65771778	     -7.28508864	     -9.17443868	     30.04231261	     46.11323965	      0.00000000	      0.00000000
     21.21142857	     -3.48037532	     -4.51784752	      3.02700402	      0.94020380	      0.93113637	      0.43273264	     12.85537106	      2.47786822	    -15.90265841	     17.21266091	     17.21266091	     10.02382912	      3.48336312	     -3.27049544	     27.22753539	    -14.37954413	     -1.29059739	     53.83088405	     53.83088405	     11.84995583	    -18.48130086	     12.76644828	    -10.98709539	      6.34985271	      4.34317227	     20.90953961	    -17.11969204	     -2.22103232	     51.96669782	     45.05364543	      0.00000000	      0.00000000	      4.39575174	     -7.12350269	     -9.46232943	     29.27780885	     46.13884221	      0.00000000	      0.00000000
     21.22464286	     -3.41504738	     -4.45897441	      3.27102460	      0.93951068	      0.93169102	      0.43351856	     12.35752476	      2.45473823	    -16.25143387	     17.05439031	     17.05439031	     10.29594996	      3.86943239	     -3.11064336	     27.59866135	    -14.56413524	     -1.74395945	     51.95129025	     51.95129025	     11.94290450	    -18.52300801	     13.07358843	    -11.05799367	      6.30452697	      4.44351920	     22.26147551	    -17.33421755	     -2.33770621	     52.97223202	     45.03624744	      0.00000000	      0.00000000	      3.29498603	     -6.87339501	     -9.73387926	     28.71660795	     46.16459596	      0.00000000	      0.00000000
     21.23785714	     -3.36312901	     -4.42233772	      3.52970054	      0.93875654	      0.93208070	      0.43407003	     11.90367740	      2.44375780	    -16.58545102	     16.94087823	     16.94087823	     10.58130580	      4.15833791	     -2.96283930	     27.86908213	    -14.71471576	     -2.19851132	     49.71328939	     49.71328939	     11.94484198	    -18.51979243	     13.39099827	    -11.09728347	      6.32597100	      4.54596008	     23.58335490	    -17.59187855	     -2.46271667	     53.94506654	     45.01945283	      0.00000000	      0.00000000	      2.23252536	     -6.65043834	     -9.97689148	     28.19818123	     46.18697564	      0.00000000	      0.00000000
     21.25107143	     -3.42948008	     -4.52747422	      3.81805003	      0.93783717	      0.93199486	      0.43442084	     11.68123660	      2.56067207	    -16.86090482	     16.96922133	     16.96922133	     10.82350344	      4.15328648	     -2.98906315	     28.28736749	    -14.93133476	     -2.50863987	     47.34432534	     47.34432534	     11.94426557	    -18.38846898	     13.72250429	    -10.95763300	      6.50539533	      4.89001833	     24.77694618	    -18.08674324	     -2.64808324	     54.53032232	     45.01466069	      0.00000000	      0.00000000	      1.29784063	     -6.41299285	    -10.05579910	     27.81591593	     46.18420486	      0.00000000	      0.00000000
